<mxfile host="app.diagrams.net" modified="2020-10-22T02:16:42.926Z" agent="5.0 (Windows NT 10.0; Win64; x64) AppleWebKit/537.36 (KHTML, like Gecko) Chrome/86.0.4240.75 Safari/537.36" etag="YC8k3V7IJrpZZw_kHS-G" version="13.8.1" type="github">
  <diagram id="C5RBs43oDa-KdzZeNtuy" name="Page-1">
    <mxGraphModel dx="385" dy="634" grid="1" gridSize="10" guides="1" tooltips="1" connect="1" arrows="1" fold="1" page="1" pageScale="1" pageWidth="827" pageHeight="1169" math="0" shadow="0">
      <root>
        <mxCell id="WIyWlLk6GJQsqaUBKTNV-0" />
        <mxCell id="WIyWlLk6GJQsqaUBKTNV-1" parent="WIyWlLk6GJQsqaUBKTNV-0" />
        <mxCell id="9679V-P3v1M1apa31lQr-4" value="Class" style="swimlane;fontStyle=1;align=center;verticalAlign=top;childLayout=stackLayout;horizontal=1;startSize=26;horizontalStack=0;resizeParent=1;resizeParentMax=0;resizeLast=0;collapsible=1;marginBottom=0;" vertex="1" collapsed="1" parent="WIyWlLk6GJQsqaUBKTNV-1">
          <mxGeometry x="40" y="40" width="60" height="26" as="geometry">
            <mxRectangle x="70" y="300" width="300" height="240" as="alternateBounds" />
          </mxGeometry>
        </mxCell>
        <mxCell id="9679V-P3v1M1apa31lQr-5" value="- var : Type" style="text;strokeColor=none;fillColor=none;align=left;verticalAlign=top;spacingLeft=4;spacingRight=4;overflow=hidden;rotatable=0;points=[[0,0.5],[1,0.5]];portConstraint=eastwest;" vertex="1" parent="9679V-P3v1M1apa31lQr-4">
          <mxGeometry y="26" width="60" height="104" as="geometry" />
        </mxCell>
        <mxCell id="9679V-P3v1M1apa31lQr-6" value="" style="line;strokeWidth=1;fillColor=none;align=left;verticalAlign=middle;spacingTop=-1;spacingLeft=3;spacingRight=3;rotatable=0;labelPosition=right;points=[];portConstraint=eastwest;" vertex="1" parent="9679V-P3v1M1apa31lQr-4">
          <mxGeometry y="130" width="60" height="10" as="geometry" />
        </mxCell>
        <mxCell id="9679V-P3v1M1apa31lQr-7" value="- method(arg: Type): Type" style="text;strokeColor=none;fillColor=none;align=left;verticalAlign=top;spacingLeft=4;spacingRight=4;overflow=hidden;rotatable=0;points=[[0,0.5],[1,0.5]];portConstraint=eastwest;" vertex="1" parent="9679V-P3v1M1apa31lQr-4">
          <mxGeometry y="140" width="60" height="100" as="geometry" />
        </mxCell>
        <mxCell id="9679V-P3v1M1apa31lQr-8" value="&lt;&lt; Interface &gt;&gt;" style="swimlane;fontStyle=3;align=center;verticalAlign=top;childLayout=stackLayout;horizontal=1;startSize=26;horizontalStack=0;resizeParent=1;resizeParentMax=0;resizeLast=0;collapsible=1;marginBottom=0;" vertex="1" collapsed="1" parent="WIyWlLk6GJQsqaUBKTNV-1">
          <mxGeometry x="40" y="80" width="90" height="26" as="geometry">
            <mxRectangle x="10" y="60" width="300" height="240" as="alternateBounds" />
          </mxGeometry>
        </mxCell>
        <mxCell id="9679V-P3v1M1apa31lQr-9" value="+ var : Type" style="text;strokeColor=none;fillColor=none;align=left;verticalAlign=top;spacingLeft=4;spacingRight=4;overflow=hidden;rotatable=0;points=[[0,0.5],[1,0.5]];portConstraint=eastwest;" vertex="1" parent="9679V-P3v1M1apa31lQr-8">
          <mxGeometry y="26" width="90" height="104" as="geometry" />
        </mxCell>
        <mxCell id="9679V-P3v1M1apa31lQr-10" value="" style="line;strokeWidth=1;fillColor=none;align=left;verticalAlign=middle;spacingTop=-1;spacingLeft=3;spacingRight=3;rotatable=0;labelPosition=right;points=[];portConstraint=eastwest;" vertex="1" parent="9679V-P3v1M1apa31lQr-8">
          <mxGeometry y="130" width="90" height="10" as="geometry" />
        </mxCell>
        <mxCell id="9679V-P3v1M1apa31lQr-11" value="+Â method(arg: Type): Type" style="text;strokeColor=none;fillColor=none;align=left;verticalAlign=top;spacingLeft=4;spacingRight=4;overflow=hidden;rotatable=0;points=[[0,0.5],[1,0.5]];portConstraint=eastwest;" vertex="1" parent="9679V-P3v1M1apa31lQr-8">
          <mxGeometry y="140" width="90" height="100" as="geometry" />
        </mxCell>
        <mxCell id="9679V-P3v1M1apa31lQr-12" value="&lt;&lt; IDialogNode &gt;&gt;" style="swimlane;fontStyle=3;align=center;verticalAlign=top;childLayout=stackLayout;horizontal=1;startSize=26;horizontalStack=0;resizeParent=1;resizeParentMax=0;resizeLast=0;collapsible=1;marginBottom=0;" vertex="1" parent="WIyWlLk6GJQsqaUBKTNV-1">
          <mxGeometry x="210" y="80" width="300" height="120" as="geometry">
            <mxRectangle x="210" y="70" width="90" height="26" as="alternateBounds" />
          </mxGeometry>
        </mxCell>
        <mxCell id="9679V-P3v1M1apa31lQr-14" value="" style="line;strokeWidth=1;fillColor=none;align=left;verticalAlign=middle;spacingTop=-1;spacingLeft=3;spacingRight=3;rotatable=0;labelPosition=right;points=[];portConstraint=eastwest;" vertex="1" parent="9679V-P3v1M1apa31lQr-12">
          <mxGeometry y="26" width="300" height="10" as="geometry" />
        </mxCell>
        <mxCell id="9679V-P3v1M1apa31lQr-15" value="+ HandleNode(): void&#xa;+ Handle(): void&#xa;+ PostHandle(): void&#xa;+ GetNextNode(): void" style="text;strokeColor=none;fillColor=none;align=left;verticalAlign=top;spacingLeft=4;spacingRight=4;overflow=hidden;rotatable=0;points=[[0,0.5],[1,0.5]];portConstraint=eastwest;" vertex="1" parent="9679V-P3v1M1apa31lQr-12">
          <mxGeometry y="36" width="300" height="84" as="geometry" />
        </mxCell>
        <mxCell id="9679V-P3v1M1apa31lQr-16" style="edgeStyle=orthogonalEdgeStyle;rounded=0;orthogonalLoop=1;jettySize=auto;html=1;endArrow=block;endFill=0;" edge="1" parent="WIyWlLk6GJQsqaUBKTNV-1" source="9679V-P3v1M1apa31lQr-0" target="9679V-P3v1M1apa31lQr-15">
          <mxGeometry relative="1" as="geometry">
            <mxPoint x="360" y="206" as="targetPoint" />
            <Array as="points">
              <mxPoint x="210" y="290" />
              <mxPoint x="360" y="290" />
            </Array>
          </mxGeometry>
        </mxCell>
        <mxCell id="9679V-P3v1M1apa31lQr-0" value="DialogNode (Old)" style="swimlane;fontStyle=1;align=center;verticalAlign=top;childLayout=stackLayout;horizontal=1;startSize=26;horizontalStack=0;resizeParent=1;resizeParentMax=0;resizeLast=0;collapsible=1;marginBottom=0;" vertex="1" parent="WIyWlLk6GJQsqaUBKTNV-1">
          <mxGeometry x="60" y="350" width="300" height="210" as="geometry" />
        </mxCell>
        <mxCell id="9679V-P3v1M1apa31lQr-1" value="~ manager : DialogManager&#xa;~ player : PlayerCharacter" style="text;strokeColor=none;fillColor=none;align=left;verticalAlign=top;spacingLeft=4;spacingRight=4;overflow=hidden;rotatable=0;points=[[0,0.5],[1,0.5]];portConstraint=eastwest;" vertex="1" parent="9679V-P3v1M1apa31lQr-0">
          <mxGeometry y="26" width="300" height="44" as="geometry" />
        </mxCell>
        <mxCell id="9679V-P3v1M1apa31lQr-2" value="" style="line;strokeWidth=1;fillColor=none;align=left;verticalAlign=middle;spacingTop=-1;spacingLeft=3;spacingRight=3;rotatable=0;labelPosition=right;points=[];portConstraint=eastwest;" vertex="1" parent="9679V-P3v1M1apa31lQr-0">
          <mxGeometry y="70" width="300" height="10" as="geometry" />
        </mxCell>
        <mxCell id="9679V-P3v1M1apa31lQr-3" value="+ Inject(DialogManager manager): void&#xa;+ GetValue(port: NodePort): void&#xa;+ HandleNode(): void&#xa;+ Handle(): void&#xa;+ PostHandle(): void&#xa;+ GetNextNode(): IDialogNode&#xa;- _WaitUntilFinished(): IEnumerator&#xa;" style="text;strokeColor=none;fillColor=none;align=left;verticalAlign=top;spacingLeft=4;spacingRight=4;overflow=hidden;rotatable=0;points=[[0,0.5],[1,0.5]];portConstraint=eastwest;" vertex="1" parent="9679V-P3v1M1apa31lQr-0">
          <mxGeometry y="80" width="300" height="130" as="geometry" />
        </mxCell>
        <mxCell id="9679V-P3v1M1apa31lQr-24" style="edgeStyle=orthogonalEdgeStyle;rounded=0;orthogonalLoop=1;jettySize=auto;html=1;endArrow=block;endFill=0;" edge="1" parent="WIyWlLk6GJQsqaUBKTNV-1" source="9679V-P3v1M1apa31lQr-17" target="9679V-P3v1M1apa31lQr-23">
          <mxGeometry relative="1" as="geometry">
            <mxPoint x="726" y="250" as="targetPoint" />
            <Array as="points" />
          </mxGeometry>
        </mxCell>
        <mxCell id="9679V-P3v1M1apa31lQr-21" value="&lt;&lt; IAutoNode &gt;&gt; (from IDialogNode)" style="swimlane;fontStyle=3;align=center;verticalAlign=top;childLayout=stackLayout;horizontal=1;startSize=26;horizontalStack=0;resizeParent=1;resizeParentMax=0;resizeLast=0;collapsible=1;marginBottom=0;" vertex="1" parent="WIyWlLk6GJQsqaUBKTNV-1">
          <mxGeometry x="570" y="80" width="300" height="120" as="geometry">
            <mxRectangle x="210" y="70" width="90" height="26" as="alternateBounds" />
          </mxGeometry>
        </mxCell>
        <mxCell id="9679V-P3v1M1apa31lQr-22" value="" style="line;strokeWidth=1;fillColor=none;align=left;verticalAlign=middle;spacingTop=-1;spacingLeft=3;spacingRight=3;rotatable=0;labelPosition=right;points=[];portConstraint=eastwest;" vertex="1" parent="9679V-P3v1M1apa31lQr-21">
          <mxGeometry y="26" width="300" height="10" as="geometry" />
        </mxCell>
        <mxCell id="9679V-P3v1M1apa31lQr-23" value="+ HandleNode(): void&#xa;+ Handle(): void&#xa;+ PostHandle(): void&#xa;+ GetNextNode(): void" style="text;strokeColor=none;fillColor=none;align=left;verticalAlign=top;spacingLeft=4;spacingRight=4;overflow=hidden;rotatable=0;points=[[0,0.5],[1,0.5]];portConstraint=eastwest;" vertex="1" parent="9679V-P3v1M1apa31lQr-21">
          <mxGeometry y="36" width="300" height="84" as="geometry" />
        </mxCell>
        <mxCell id="9679V-P3v1M1apa31lQr-17" value="AutoNode (from DialogNode)" style="swimlane;fontStyle=1;align=center;verticalAlign=top;childLayout=stackLayout;horizontal=1;startSize=26;horizontalStack=0;resizeParent=1;resizeParentMax=0;resizeLast=0;collapsible=1;marginBottom=0;" vertex="1" parent="WIyWlLk6GJQsqaUBKTNV-1">
          <mxGeometry x="750" y="300" width="300" height="210" as="geometry" />
        </mxCell>
        <mxCell id="9679V-P3v1M1apa31lQr-18" value="~ manager : DialogManager&#xa;~ player : PlayerCharacter" style="text;strokeColor=none;fillColor=none;align=left;verticalAlign=top;spacingLeft=4;spacingRight=4;overflow=hidden;rotatable=0;points=[[0,0.5],[1,0.5]];portConstraint=eastwest;" vertex="1" parent="9679V-P3v1M1apa31lQr-17">
          <mxGeometry y="26" width="300" height="44" as="geometry" />
        </mxCell>
        <mxCell id="9679V-P3v1M1apa31lQr-19" value="" style="line;strokeWidth=1;fillColor=none;align=left;verticalAlign=middle;spacingTop=-1;spacingLeft=3;spacingRight=3;rotatable=0;labelPosition=right;points=[];portConstraint=eastwest;" vertex="1" parent="9679V-P3v1M1apa31lQr-17">
          <mxGeometry y="70" width="300" height="10" as="geometry" />
        </mxCell>
        <mxCell id="9679V-P3v1M1apa31lQr-20" value="+ Inject(DialogManager manager): void&#xa;+ GetValue(port: NodePort): void&#xa;+ HandleNode(): void&#xa;+ Handle(): void&#xa;+ PostHandle(): void&#xa;+ GetNextNode(): IDialogNode&#xa;- _WaitUntilFinished(): IEnumerator&#xa;" style="text;strokeColor=none;fillColor=none;align=left;verticalAlign=top;spacingLeft=4;spacingRight=4;overflow=hidden;rotatable=0;points=[[0,0.5],[1,0.5]];portConstraint=eastwest;" vertex="1" parent="9679V-P3v1M1apa31lQr-17">
          <mxGeometry y="80" width="300" height="130" as="geometry" />
        </mxCell>
      </root>
    </mxGraphModel>
  </diagram>
</mxfile>
